<?xml version="1.0" standalone="no"?><!DOCTYPE svg PUBLIC "-//W3C//DTD SVG 1.1//EN" "http://www.w3.org/Graphics/SVG/1.1/DTD/svg11.dtd"><svg width="100%" height="100%" viewBox="0 0 235 56" version="1.1" xmlns="http://www.w3.org/2000/svg" xmlns:xlink="http://www.w3.org/1999/xlink" xml:space="preserve" style="fill-rule:evenodd;clip-rule:evenodd;stroke-linejoin:round;stroke-miterlimit:1.41421;"><path d="M27.167,0.819c-14.452,0 -26.167,11.715 -26.167,26.167c0,14.45 11.715,26.167 26.167,26.167c14.452,0 26.167,-11.717 26.167,-26.167c0,-14.452 -11.715,-26.167 -26.167,-26.167ZM27.338,20.772c0.266,-0.5 1.356,-1.074 2.189,-0.929c1.722,0.211 1.417,1.544 1.499,2.104c-0.227,-0.486 -0.839,-1.121 -1.594,-1.252c-0.755,-0.133 -1.718,-0.305 -2.094,0.077ZM36.286,36.115c-0.979,-2.149 -2.028,-4.063 -2.408,-5.578c0.635,0.286 1.394,0.317 2.277,-0.063c0.211,0.959 0.139,2.279 -0.014,3.262c-0.108,0.699 -0.075,1.567 0.145,2.379ZM39.534,48.191c-0.087,-1.572 -1.389,-6.72 -1.738,-8.033c-0.254,-0.962 -0.595,-1.897 -0.968,-2.802c0.372,0.571 0.892,1.014 1.598,1.192c2.008,0.503 2.488,-1.982 0.386,-4.301c-1.343,-1.479 -1.721,-3.193 -1.82,-4.241c0.599,-0.405 1.244,-0.987 1.94,-1.792c-9.644,2.658 -9.192,-3.608 -9.192,-3.608c0.104,2.96 4.664,2.859 4.664,2.859l0.032,0.003c1.084,-1.267 3.564,-2.046 8.403,-1.412c0,0 -1.659,-4.991 -6.979,-5.458c-3.156,-0.278 -3.876,2.108 -3.876,2.108c0,0 -0.363,-2.687 3.644,-2.844c4.005,-0.158 1.956,-3.89 -0.486,-5.551c-2.444,-1.66 -1.167,-2.1 -2.241,-2.055c-1.074,0.046 0.533,1.149 0.024,1.212c-0.508,0.064 -5.524,-6.972 -6.989,-7.627c-1.462,-0.654 -0.614,0.756 -0.021,1.063c0.59,0.305 3.416,4.087 2.369,4.42c-1.048,0.335 -2.415,0.904 -4.629,-1.787c-2.214,-2.69 -3.73,-3.921 -5.983,-4.057c-2.253,-0.139 -1.053,0.831 0.702,1.887c1.755,1.054 2.235,1.627 2.223,2.62c-0.014,0.994 0.99,1.859 1.833,1.921c0,0 -0.952,0.634 -3.127,-0.915c-2.178,-1.547 -3.066,-2.682 -4.583,-2.987c-1.517,-0.307 -3.244,5.751 0.536,7.974c2.218,1.306 3.146,1.603 3.535,1.625c-0.403,0.126 -1.218,0.301 -2.313,0.13c0,0 0.892,1.562 4.151,0.718c3.259,-0.843 5.822,0.053 4.875,1.115c-0.95,1.06 -4.507,5.2 -6.491,11.076c-1.815,5.392 -2.112,10.6 -5.528,13.367c-0.417,0.846 -0.86,1.65 -1.31,2.41c-5.812,-4.489 -9.56,-11.522 -9.56,-19.436c0,-13.56 10.993,-24.552 24.551,-24.552c13.56,0 24.552,10.993 24.552,24.552c0.001,9.05 -4.898,16.948 -12.184,21.206Z" style="fill:#747474;fill-rule:nonzero;"/><g><path d="M189.573,27.924c0.494,0.027 0.879,0.184 1.16,0.463c0.246,0.269 0.371,0.635 0.371,1.095l0,6.503l-2.346,0l0,-6.238l-2.195,0l0,6.238l-2.348,0l0,-6.238l-2.174,0l0,6.238l-2.355,0l0,-8.062l9.887,0l0,0.001Z" style="fill:#747474;fill-rule:nonzero;"/><path d="M196.712,34.253l6.627,0l0,1.732l-7.424,0c-0.514,0 -0.902,-0.145 -1.164,-0.432c-0.262,-0.289 -0.389,-0.66 -0.389,-1.12l0,-4.809c0,-0.504 0.217,-0.919 0.65,-1.24c0.406,-0.308 0.934,-0.461 1.58,-0.461l6.746,0l0,1.823l-6.627,0l0,0.935l5.887,0l0,1.732l-5.887,0l0,1.84l0.001,0Z" style="fill:#747474;fill-rule:nonzero;"/><path d="M215.563,34.375c0,0.522 -0.227,0.927 -0.676,1.212c-0.438,0.266 -0.947,0.398 -1.537,0.398l-6.766,0l0,-8.062l7.439,0c0.473,0 0.85,0.156 1.141,0.463c0.266,0.302 0.398,0.667 0.398,1.095l0,4.894l0.001,0ZM208.94,34.247l4.273,0l0,-4.5l-4.273,0l0,4.5Z" style="fill:#747474;fill-rule:nonzero;"/><rect x="218.811" y="27.924" width="2.354" height="8.062" style="fill:#747474;fill-rule:nonzero;"/><path d="M226.772,32.414l0,3.571l-2.361,0l0,-6.361c0,-0.504 0.219,-0.919 0.654,-1.24c0.404,-0.308 0.934,-0.461 1.58,-0.461l5.229,0c0.475,0 0.844,0.156 1.117,0.463c0.279,0.28 0.418,0.644 0.418,1.095l0,6.503l-2.365,0l0,-3.571l-4.272,0l0,0.001ZM231.045,29.77l-4.273,0l0,0.928l4.273,0l0,-0.928Z" style="fill:#747474;fill-rule:nonzero;"/><g><path d="M81.601,10.559c0,1.212 -0.2,2.159 -0.6,2.848c-0.378,0.671 -0.811,1.095 -1.289,1.278c0.253,0.054 0.617,0.319 1.085,0.796c0.481,0.533 0.747,1.285 0.804,2.26l0,6.58l-5.092,0l0,-5.695c-0.01,-0.764 -0.159,-1.281 -0.449,-1.551c-0.262,-0.296 -0.679,-0.457 -1.25,-0.483l-7.519,0l0,7.729l-5.092,0l-2.432,-18.384l18.534,0.941c1.022,0 1.833,0.319 2.43,0.953c0.579,0.687 0.87,1.492 0.87,2.416l0,0.312ZM67.291,12.845l8.267,0c0.271,0 0.502,-0.082 0.692,-0.249c0.17,-0.157 0.258,-0.393 0.258,-0.704l-0.19,-1.713l-9.761,-0.423l0.734,3.089Z" style="fill:#747474;fill-rule:nonzero;"/><path d="M82.948,15.068c0,-0.975 0.382,-1.752 1.146,-2.332c0.763,-0.58 1.722,-0.869 2.872,-0.869l9.458,0c0.895,0.021 1.578,0.298 2.055,0.828c0.476,0.53 0.717,1.221 0.717,2.078l0,6.515c0,0.917 -0.403,1.651 -1.207,2.203c-0.802,0.553 -1.742,0.83 -2.825,0.83l-9.435,0c-0.9,-0.03 -1.589,-0.285 -2.067,-0.761c-0.475,-0.478 -0.713,-1.192 -0.713,-2.146l0,-6.346l-0.001,0ZM87.205,15.306l0,5.756l7.72,0l0,-5.756l-7.72,0l0,0Z" style="fill:#747474;fill-rule:nonzero;"/><path d="M100.428,15.068c0,-0.975 0.383,-1.752 1.147,-2.332c0.765,-0.58 1.723,-0.869 2.873,-0.869l9.457,0c0.891,0.021 1.578,0.298 2.055,0.828c0.477,0.53 0.714,1.221 0.714,2.078l0,6.515c0,0.917 -0.398,1.651 -1.201,2.203c-0.804,0.553 -1.745,0.83 -2.827,0.83l-9.435,0c-0.899,-0.03 -1.59,-0.285 -2.067,-0.761c-0.478,-0.478 -0.715,-1.192 -0.715,-2.146l-0.001,-6.346ZM104.687,15.306l0,5.756l7.721,0l0,-5.756l-7.721,0l0,0Z" style="fill:#747474;fill-rule:nonzero;"/><path d="M122.17,15.306l0,0.988l11.964,0l0,4.995c0,0.917 -0.398,1.651 -1.19,2.203c-0.797,0.553 -1.735,0.83 -2.817,0.83l-12.215,0l0,-3.259l11.974,0l0,-1.487l-9.191,0c-0.895,0 -1.58,-0.285 -2.061,-0.858c-0.48,-0.57 -0.72,-1.253 -0.72,-2.048l0,-1.601c0,-0.975 0.38,-1.752 1.141,-2.332c0.761,-0.58 1.708,-0.869 2.842,-0.869l10.968,0l0,3.439l-10.695,-0.001Z" style="fill:#747474;fill-rule:nonzero;"/><path d="M138.176,24.321c-0.792,0 -1.456,-0.22 -1.983,-0.658c-0.525,-0.439 -0.803,-1.192 -0.831,-2.258l0,-12.25l4.257,0l0,2.712l4.074,0l0,3.439l-4.074,0l0,5.756l4.074,0l0,3.259l-5.517,0l0,0Z" style="fill:#747474;fill-rule:nonzero;"/><path d="M144.922,21.289l0,-6.494c0,-0.907 0.262,-1.611 0.793,-2.111c0.531,-0.499 1.191,-0.771 1.986,-0.816l9.402,0c1.158,0 2.115,0.289 2.877,0.869c0.76,0.579 1.137,1.356 1.137,2.332l0,4.507l-11.941,0l0,1.487l10.707,0l0,3.259l-10.943,0c-1.092,0 -2.033,-0.277 -2.828,-0.83c-0.797,-0.551 -1.19,-1.286 -1.19,-2.203ZM156.876,15.306l-7.699,0l0,0.988l7.699,0l0,-0.988Z" style="fill:#747474;fill-rule:nonzero;"/><path d="M171.034,15.306l-4.42,0l0,5.917l-4.256,3.098l0,-12.454l4.256,0l0,0.738c0.691,-0.493 1.359,-0.738 2.012,-0.738l2.408,0l0,3.439Z" style="fill:#747474;fill-rule:nonzero;"/></g><g><path d="M185.95,15.848l-1.457,0l0,0.003l-2.857,0l-3.146,0.055l6.004,2.521l0,2.493l-7.648,0l0,-8.388l10.588,0l2.832,-3.389l-13.654,0c-1.168,0 -2.111,0.284 -2.83,0.853c-0.764,0.578 -1.143,1.347 -1.143,2.313l0,8.835c0,0.823 0.229,1.533 0.684,2.121c0.488,0.585 1.174,0.876 2.057,0.876l9.359,0c1.072,0 1.994,-0.265 2.775,-0.795c0.793,-0.562 1.189,-1.297 1.189,-2.202l0,-2.57c0,-0.754 -0.275,-1.399 -0.83,-1.931c-0.54,-0.528 -1.179,-0.795 -1.923,-0.795Z" style="fill:#a40050;fill-rule:nonzero;"/><path d="M194.124,12.555l0,-0.729l-4.209,0l0,12.316l4.209,0l0,-8.915l4.365,0l0,-3.402l-2.377,0c-0.645,0.001 -1.309,0.245 -1.988,0.73Z" style="fill:#a40050;fill-rule:nonzero;"/><rect x="199.704" y="12.386" width="4.209" height="11.756" style="fill:#a40050;"/><rect x="199.704" y="9.143" width="4.209" height="2.47" style="fill:#a40050;"/><path d="M220.46,12.713c-0.469,-0.532 -1.139,-0.828 -2.006,-0.887l-13.326,0l0,12.316l4.207,0l0,-8.915l7.668,0l0,8.915l4.166,0l0,-9.419c0,-0.809 -0.235,-1.479 -0.709,-2.01Z" style="fill:#a40050;fill-rule:nonzero;"/></g></g></svg>