<?xml version="1.0" encoding="utf-8"?>
<!-- Generator: Adobe Illustrator 18.1.1, SVG Export Plug-In . SVG Version: 6.00 Build 0)  -->
<!DOCTYPE svg PUBLIC "-//W3C//DTD SVG 1.1//EN" "http://www.w3.org/Graphics/SVG/1.1/DTD/svg11.dtd">
<svg version="1.1" id="Layer_1" xmlns="http://www.w3.org/2000/svg" xmlns:xlink="http://www.w3.org/1999/xlink" x="0px" y="0px"
	 viewBox="0 17.6 360 60" style="enable-background:new 0 17.6 360 60;" xml:space="preserve">
<style type="text/css">
	.st0{fill:#830051;}
	.st1{fill:#E2E2E2;}
</style>
<path class="st0" d="M105.9,32.8c0,2.2-0.4,3.9-1.1,5.1c-0.7,1.2-1.5,2-2.3,2.3c0.5,0.1,1.1,0.6,1.9,1.4c0.9,1,1.3,2.3,1.4,4.1v11.8
	h-9.1V47.2c0-1.4-0.3-2.3-0.8-2.8c-0.5-0.5-1.2-0.8-2.2-0.9H80.3v13.9h-9.1l-4.4-33l33.2,1.7c1.8,0,3.3,0.6,4.4,1.7
	c1,1.2,1.6,2.7,1.6,4.3V32.8z M80.3,36.9h14.8c0.5,0,0.9-0.1,1.2-0.4c0.3-0.3,0.5-0.7,0.5-1.3l-0.3-3.1L79,31.3L80.3,36.9z"/>
<path class="st0" d="M108.3,40.8c0-1.8,0.7-3.1,2.1-4.2c1.4-1,3.1-1.6,5.1-1.6h17c1.6,0,2.8,0.5,3.7,1.5c0.9,1,1.3,2.2,1.3,3.7V52
	c0,1.6-0.7,3-2.2,3.9c-1.4,1-3.1,1.5-5.1,1.5h-16.9c-1.6-0.1-2.8-0.5-3.7-1.4c-0.9-0.9-1.3-2.1-1.3-3.8V40.8z M116,51.6h13.8V41.3
	H116V51.6z"/>
<path class="st0" d="M139.7,40.8c0-1.8,0.7-3.1,2.1-4.2c1.4-1,3.1-1.6,5.1-1.6h17c1.6,0,2.8,0.5,3.7,1.5c0.9,1,1.3,2.2,1.3,3.7V52
	c0,1.6-0.7,3-2.2,3.9c-1.4,1-3.1,1.5-5.1,1.5h-16.9c-1.6-0.1-2.8-0.5-3.7-1.4c-0.9-0.9-1.3-2.1-1.3-3.8V40.8z M147.3,51.6h13.8V41.3
	h-13.8V51.6z"/>
<path class="st0" d="M178.7,41.3V43h21.4v9c0,1.6-0.7,3-2.1,3.9c-1.4,1-3.1,1.5-5,1.5H171v-5.8h21.5v-2.7H176
	c-1.6,0-2.8-0.5-3.7-1.5c-0.9-1-1.3-2.2-1.3-3.7v-2.9c0-1.8,0.7-3.1,2-4.2c1.4-1,3.1-1.6,5.1-1.6h19.7v6.2H178.7z"/>
<path class="st0" d="M207.4,57.4c-1.4,0-2.6-0.4-3.6-1.2c-0.9-0.8-1.4-2.1-1.5-4v-22h7.6v4.9h7.3v6.2h-7.3v10.3h7.3v5.8H207.4z"/>
<path class="st0" d="M219.4,52V40.3c0-1.6,0.5-2.9,1.4-3.8c1-0.9,2.1-1.4,3.6-1.5h16.9c2.1,0,3.8,0.5,5.2,1.6c1.4,1,2,2.4,2,4.2v8.1
	h-21.4v2.7h19.2v5.8h-19.6c-2,0-3.6-0.5-5.1-1.5C220.2,54.9,219.4,53.6,219.4,52 M240.9,41.3h-13.8V43h13.8V41.3z"/>
<path class="st0" d="M266.3,41.3h-7.9v10.6l-7.6,5.6V35.1h7.6v1.3c1.2-0.9,2.4-1.3,3.6-1.3h4.3V41.3z"/>
<rect x="317.7" y="30.2" class="st1" width="7.5" height="4.4"/>
<path class="st1" d="M293,42.2h-2.6v0h-5.1l-5.6,0.1l10.8,4.5v4.5h-13.7v-15h19l5.1-6.1h-24.5c-2.1,0-3.8,0.5-5.1,1.5
	c-1.4,1-2.1,2.4-2.1,4.1v15.8c0,1.5,0.4,2.7,1.2,3.8c0.9,1,2.1,1.6,3.7,1.6h16.8c1.9,0,3.6-0.5,5-1.4c1.4-1,2.1-2.3,2.1-3.9v-4.6
	c0-1.4-0.5-2.5-1.5-3.5C295.5,42.7,294.3,42.2,293,42.2"/>
<path class="st1" d="M307.7,36.3V35h-7.5v22.1h7.5v-16h7.8V35h-4.3C310.1,35,308.9,35.5,307.7,36.3"/>
<rect x="317.7" y="36" class="st1" width="7.5" height="21.1"/>
<path class="st1" d="M354.9,36.6c-0.8-1-2-1.5-3.6-1.6h-23.9v22.1h7.6v-16h13.7v16h7.5V40.2C356.1,38.8,355.7,37.6,354.9,36.6"/>
<g>
	<path class="st1" d="M223.1,68.3c0-0.6,0.1-1.2,0.3-1.7c0.2-0.5,0.4-1,0.7-1.4c0.3-0.4,0.7-0.7,1.2-0.9s1-0.3,1.7-0.3
		c0.7,0,1.2,0.1,1.7,0.3c0.5,0.2,0.9,0.5,1.2,0.9c0.3,0.4,0.6,0.9,0.7,1.4c0.2,0.5,0.2,1.1,0.2,1.7c0,0.6-0.1,1.2-0.2,1.7
		c-0.2,0.5-0.4,1-0.7,1.4s-0.7,0.7-1.2,1c-0.5,0.2-1.1,0.3-1.7,0.3c-0.6,0-1.2-0.1-1.7-0.3c-0.5-0.2-0.9-0.5-1.2-1s-0.6-0.9-0.7-1.4
		S223.1,68.9,223.1,68.3z M227,72c0.5,0,1-0.1,1.4-0.3c0.4-0.2,0.7-0.5,1-0.8c0.3-0.3,0.4-0.7,0.6-1.2c0.1-0.5,0.2-0.9,0.2-1.4
		c0-0.6-0.1-1.1-0.2-1.6c-0.1-0.5-0.4-0.9-0.6-1.2c-0.3-0.3-0.6-0.6-1-0.7s-0.8-0.3-1.3-0.3c-0.5,0-1,0.1-1.4,0.3s-0.7,0.5-1,0.8
		c-0.3,0.3-0.4,0.7-0.6,1.2c-0.1,0.5-0.2,0.9-0.2,1.4c0,0.5,0.1,1,0.2,1.4c0.1,0.5,0.3,0.8,0.6,1.2c0.3,0.3,0.6,0.6,1,0.8
		C225.9,71.9,226.4,72,227,72z"/>
	<path class="st1" d="M234.4,65.1L234.4,65.1l0,7.3h-0.8v-8.4h0.9l4.8,7.3h0v-7.3h0.8v8.4h-0.9L234.4,65.1z"/>
	<path class="st1" d="M243.2,72.4v-8.4h0.8v7.7h4.5v0.7H243.2z"/>
	<path class="st1" d="M251.1,72.4v-8.4h0.8v8.4H251.1z"/>
	<path class="st1" d="M256,65.1L256,65.1l0,7.3h-0.8v-8.4h0.9l4.8,7.3h0v-7.3h0.8v8.4h-0.9L256,65.1z"/>
	<path class="st1" d="M264.8,72.4v-8.4h5.6v0.7h-4.8v3h4.3v0.7h-4.3v3.3h4.9v0.7H264.8z"/>
	<path class="st1" d="M276.7,72.4l3.3-8.4h0.9l3.2,8.4h-0.8l-1-2.6h-3.8l-1,2.6H276.7z M278.8,69.1h3.3l-1.6-4.4L278.8,69.1z"/>
	<path class="st1" d="M286.5,72.4v-8.4h2.9c0.2,0,0.5,0,0.7,0c0.2,0,0.4,0,0.7,0.1c0.2,0,0.4,0.1,0.6,0.2s0.4,0.2,0.6,0.3
		c0.3,0.2,0.5,0.4,0.7,0.7c0.2,0.3,0.3,0.6,0.4,0.9c0.1,0.3,0.2,0.6,0.2,1s0.1,0.6,0.1,0.9c0,0.3,0,0.6-0.1,0.9s-0.1,0.6-0.2,0.8
		c-0.1,0.3-0.2,0.5-0.3,0.8c-0.1,0.3-0.3,0.5-0.5,0.7c-0.2,0.2-0.4,0.4-0.6,0.5s-0.5,0.2-0.7,0.3c-0.3,0.1-0.5,0.1-0.8,0.2
		c-0.3,0-0.5,0-0.8,0H286.5z M287.2,71.8h1.9c0.4,0,0.7,0,1-0.1c0.3,0,0.6-0.1,1-0.3c0.3-0.1,0.5-0.3,0.7-0.6
		c0.2-0.2,0.3-0.5,0.4-0.8c0.1-0.3,0.2-0.6,0.2-0.9c0-0.3,0.1-0.6,0.1-0.9c0-0.3,0-0.6-0.1-0.9c0-0.3-0.1-0.6-0.2-0.9
		c-0.1-0.3-0.3-0.5-0.4-0.8c-0.2-0.2-0.4-0.4-0.7-0.6c-0.2-0.1-0.5-0.2-0.9-0.3c-0.3,0-0.7-0.1-1-0.1h-1.9V71.8z"/>
	<path class="st1" d="M295.3,64.1h0.8l2.5,7.5l2.5-7.5h0.8l-2.9,8.4h-0.9L295.3,64.1z"/>
	<path class="st1" d="M303.5,72.4l3.3-8.4h0.9l3.2,8.4h-0.8l-1-2.6h-3.8l-1,2.6H303.5z M305.6,69.1h3.3l-1.6-4.4L305.6,69.1z"/>
	<path class="st1" d="M314,65.1L314,65.1l0,7.3h-0.8v-8.4h0.9l4.8,7.3h0v-7.3h0.8v8.4h-0.9L314,65.1z"/>
	<path class="st1" d="M322.1,64.1h6.1v0.7h-2.7v7.7h-0.8v-7.7h-2.7V64.1z"/>
	<path class="st1" d="M329.7,72.4l3.3-8.4h0.9l3.2,8.4h-0.8l-1-2.6h-3.8l-1,2.6H329.7z M331.8,69.1h3.3l-1.6-4.4L331.8,69.1z"/>
	<path class="st1" d="M343,68.8v-0.7h3.6v4.3h-0.7V71c-0.1,0.2-0.3,0.5-0.5,0.7c-0.2,0.2-0.4,0.4-0.7,0.5c-0.2,0.1-0.5,0.3-0.9,0.3
		c-0.3,0.1-0.7,0.1-1.1,0.1c-0.5,0-1-0.1-1.5-0.3s-0.8-0.5-1.2-0.8c-0.3-0.4-0.6-0.8-0.8-1.4s-0.3-1.2-0.3-2c0-0.6,0.1-1.2,0.2-1.7
		s0.4-1,0.7-1.4s0.7-0.7,1.2-0.9s1.1-0.3,1.7-0.3c0.4,0,0.9,0.1,1.2,0.2c0.4,0.1,0.7,0.3,1,0.5c0.3,0.2,0.6,0.5,0.8,0.8
		c0.2,0.3,0.4,0.7,0.5,1.2h-0.8c-0.1-0.3-0.2-0.6-0.4-0.8c-0.2-0.2-0.4-0.5-0.6-0.6c-0.2-0.2-0.5-0.3-0.8-0.4
		c-0.3-0.1-0.6-0.1-0.9-0.1c-0.6,0-1,0.1-1.4,0.3c-0.4,0.2-0.7,0.5-1,0.8c-0.3,0.4-0.4,0.8-0.6,1.3c-0.1,0.5-0.2,1-0.2,1.6
		c0,0.5,0.1,0.9,0.2,1.3c0.1,0.4,0.3,0.8,0.6,1.1c0.3,0.3,0.6,0.6,1,0.8s0.8,0.3,1.3,0.3c0.2,0,0.5,0,0.7-0.1
		c0.2-0.1,0.5-0.1,0.7-0.3c0.2-0.1,0.4-0.3,0.6-0.5s0.4-0.4,0.5-0.7c0.1-0.3,0.2-0.5,0.3-0.8c0.1-0.3,0.1-0.6,0.1-0.9H343z"/>
	<path class="st1" d="M349.7,72.4v-8.4h5.6v0.7h-4.8v3h4.3v0.7h-4.3v3.3h4.9v0.7H349.7z"/>
</g>
<path class="st1" d="M30.2,18.6C15.2,18.6,3,30.8,3,45.8c0,15,12.2,27.2,27.2,27.2c15,0,27.2-12.2,27.2-27.2
	C57.4,30.8,45.2,18.6,30.2,18.6z M30.4,39.3c0.3-0.5,1.4-1.1,2.3-1c1.8,0.2,1.5,1.6,1.6,2.2c-0.2-0.5-0.9-1.2-1.7-1.3
	C31.7,39.1,30.7,38.9,30.4,39.3z M39.6,55.2c-1-2.2-2.1-4.2-2.5-5.8c0.7,0.3,1.4,0.3,2.4-0.1c0.2,1,0.1,2.4,0,3.4
	C39.4,53.5,39.4,54.4,39.6,55.2z M43,67.8c-0.1-1.6-1.4-7-1.8-8.3c-0.3-1-0.6-2-1-2.9c0.4,0.6,0.9,1.1,1.7,1.2
	c2.1,0.5,2.6-2.1,0.4-4.5c-1.4-1.5-1.8-3.3-1.9-4.4c0.6-0.4,1.3-1,2-1.9c-10,2.8-9.5-3.7-9.5-3.7c0.1,3.1,4.8,3,4.8,3l0,0
	c1.1-1.3,3.7-2.1,8.7-1.5c0,0-1.7-5.2-7.2-5.7c-3.3-0.3-4,2.2-4,2.2s-0.4-2.8,3.8-3c4.2-0.2,2-4-0.5-5.8c-2.5-1.7-1.2-2.2-2.3-2.1
	c-1.1,0,0.6,1.2,0,1.3c-0.5,0.1-5.7-7.2-7.3-7.9c-1.5-0.7-0.6,0.8,0,1.1c0.6,0.3,3.5,4.2,2.5,4.6c-1.1,0.3-2.5,0.9-4.8-1.9
	c-2.3-2.8-3.9-4.1-6.2-4.2c-2.3-0.1-1.1,0.9,0.7,2c1.8,1.1,2.3,1.7,2.3,2.7c0,1,1,1.9,1.9,2c0,0-1,0.7-3.2-0.9
	c-2.3-1.6-3.2-2.8-4.8-3.1c-1.6-0.3-3.4,6,0.6,8.3c2.3,1.4,3.3,1.7,3.7,1.7c-0.4,0.1-1.3,0.3-2.4,0.1c0,0,0.9,1.6,4.3,0.7
	c3.4-0.9,6,0.1,5.1,1.2c-1,1.1-4.7,5.4-6.7,11.5c-1.9,5.6-2.2,11-5.7,13.9c-0.4,0.9-0.9,1.7-1.4,2.5c-6-4.7-9.9-12-9.9-20.2
	c0-14.1,11.4-25.5,25.5-25.5c14.1,0,25.5,11.4,25.5,25.5C55.7,55.2,50.6,63.4,43,67.8z"/>
</svg>
