<?xml version="1.0" standalone="no"?><!DOCTYPE svg PUBLIC "-//W3C//DTD SVG 1.1//EN" "http://www.w3.org/Graphics/SVG/1.1/DTD/svg11.dtd"><svg width="100%" height="100%" viewBox="0 0 19 30" version="1.1" xmlns="http://www.w3.org/2000/svg" xmlns:xlink="http://www.w3.org/1999/xlink" xml:space="preserve" style="fill-rule:evenodd;clip-rule:evenodd;stroke-linejoin:round;stroke-miterlimit:1.41421;"><path id="content" d="M9,17.379l0,-3.129c0,-1.24 1.01,-2.25 2.25,-2.25c1.24,0 2.25,1.01 2.25,2.25l0,6.569l0.713,-0.713c0.847,-0.849 2.331,-0.851 3.181,0c0.425,0.425 0.659,0.99 0.659,1.591c0,0.601 -0.234,1.166 -0.659,1.591l-4.243,4.242c-0.146,0.146 -0.338,0.22 -0.53,0.22c-0.192,0 -0.384,-0.074 -0.53,-0.22c-0.293,-0.293 -0.293,-0.767 0,-1.06l4.243,-4.243c0.142,-0.142 0.219,-0.33 0.219,-0.53c0,-0.201 -0.078,-0.389 -0.219,-0.531c-0.285,-0.283 -0.778,-0.283 -1.06,0l-1.993,1.992c-0.293,0.294 -0.768,0.294 -1.06,0c-0.162,-0.161 -0.235,-0.379 -0.218,-0.59c-0.002,-0.022 -0.003,-0.045 -0.003,-0.068l0,-8.25c0,-0.414 -0.336,-0.75 -0.75,-0.75c-0.414,0 -0.75,0.336 -0.75,0.75l0,6c0,0.415 -0.335,0.75 -0.75,0.75c-0.415,0 -0.75,-0.335 -0.75,-0.75l0,-0.75c0,-0.414 -0.336,-0.75 -0.75,-0.75c-0.414,0 -0.75,0.336 -0.75,0.75l0,0.75c0,0.412 -0.33,0.745 -0.74,0.75l-0.01,0c-0.415,0 -0.75,-0.335 -0.75,-0.75c0,-0.414 -0.336,-0.75 -0.75,-0.75c-0.414,0 -0.75,0.336 -0.75,0.75l0,0.75c0,0.412 -0.33,0.745 -0.74,0.75l-0.01,0c-0.415,0 -0.75,-0.335 -0.75,-0.75c0,-0.414 -0.336,-0.75 -0.75,-0.75c-0.414,0 -0.75,0.336 -0.75,0.75l0,2.25c0,2.894 2.356,5.25 5.25,5.25c0.923,0 1.83,-0.242 2.624,-0.702c0.36,-0.209 0.818,-0.086 1.025,0.274c0.208,0.358 0.085,0.817 -0.273,1.024c-1.023,0.591 -2.19,0.904 -3.376,0.904c-3.722,0 -6.75,-3.028 -6.75,-6.75l0,-2.25c0,-1.241 1.01,-2.25 2.25,-2.25c0.401,0 0.778,0.105 1.104,0.29c0.4,-0.625 1.101,-1.04 1.896,-1.04c0.401,0 0.778,0.105 1.104,0.29c0.4,-0.625 1.101,-1.04 1.896,-1.04c0.263,0 0.515,0.045 0.75,0.129ZM10.526,2.51l-1.664,2.08c-0.258,0.324 -0.73,0.377 -1.054,0.117c-0.324,-0.259 -0.376,-0.73 -0.117,-1.054l2.415,-3.018c0.284,-0.357 0.711,-0.562 1.17,-0.563l0,0c0.459,0 0.886,0.206 1.173,0.564l2.413,3.017c0.259,0.324 0.206,0.795 -0.117,1.054c-0.139,0.111 -0.304,0.164 -0.468,0.164c-0.22,0 -0.438,-0.096 -0.586,-0.281l-1.665,-2.08l0,7.611c0,0.415 -0.335,0.75 -0.75,0.75c-0.414,0 -0.75,-0.335 -0.75,-0.75l0,-7.611Z"/></svg>