<?xml version="1.0" standalone="no"?>
<!DOCTYPE svg PUBLIC "-//W3C//DTD SVG 1.1//EN" "http://www.w3.org/Graphics/SVG/1.1/DTD/svg11.dtd">
<svg width="100%" height="100%" viewBox="0 0 512 512" version="1.1" xmlns="http://www.w3.org/2000/svg" xmlns:xlink="http://www.w3.org/1999/xlink" xml:space="preserve" style="fill-rule:evenodd;clip-rule:evenodd;stroke-linejoin:round;stroke-miterlimit:1.41421;">
    <rect x="0" y="0" width="512" height="512" style="fill:rgb(51,130,156);"/>
    <g id="cursor-pointer-icon" transform="matrix(0.748654,0,0,0.748654,50.241,62.3446)">
        <path d="M179.997,83.572L179.997,272.42C164.017,255.027 136.392,234.277 109.378,235.896C76.97,237.837 70.815,272.542 98.816,298.76C145.957,342.899 193.391,408.028 203.983,462C203.983,462 344.629,462 388.393,462C388.393,353.207 423.553,330.086 429.948,273.294C434.734,230.806 423.312,197.573 388.925,192.682L393.667,206.111C395.494,212.121 392.094,218.474 386.079,220.296C380.061,222.116 373.708,218.721 371.891,212.702L367.37,200.196C362.636,184.554 348.099,182.484 326.526,179.614L332.167,196.213C333.994,202.229 330.586,208.582 324.569,210.407C318.559,212.22 312.206,208.825 310.386,202.81L306.303,189.967C301.407,173.805 288.226,172.05 264.325,168.411L269.674,186.243C274.676,202.771 243.14,210.752 243.14,164.697L243.14,83.572C243.141,65.03 230.11,50 211.569,50C193.028,50 179.997,65.03 179.997,83.572Z" style="fill:white;fill-rule:nonzero;"/>
    </g>
</svg>
