<?xml version="1.0" standalone="no"?>
<!DOCTYPE svg PUBLIC "-//W3C//DTD SVG 1.1//EN" "http://www.w3.org/Graphics/SVG/1.1/DTD/svg11.dtd">
<svg width="100%" height="100%" viewBox="0 0 512 512" version="1.1" xmlns="http://www.w3.org/2000/svg" xmlns:xlink="http://www.w3.org/1999/xlink" xml:space="preserve" style="fill-rule:evenodd;clip-rule:evenodd;stroke-linejoin:round;stroke-miterlimit:1.41421;">
    <g transform="matrix(1.09899,0,0,1.09899,-23.8388,-25.3426)">
        <path id="user-11-icon" d="M276.026,461.649L50.081,461.649C50.081,405.196 45.542,374.083 104.554,360.473C162.321,347.149 219.341,335.239 191.929,284.756C110.699,135.161 168.77,50.35 256.001,50.35C341.546,50.35 404.361,138.833 310.073,284.756C296.864,305.199 292.719,310.519 292.232,356.546C292.193,360.203 277.925,356.229 277.302,359.836C276.098,366.815 276.86,423.042 276.026,461.649Z" style="fill:white;fill-rule:nonzero;"/>
        <g id="lock-icon" transform="matrix(0.437111,0,0,0.437111,255.024,259.704)">
            <path d="M145.333,223.333L145.333,160.667C145.333,99.645 194.979,50 256,50C317.022,50 366.667,99.645 366.667,160.667L366.667,223.333L293.79,223.333L293.79,160.667C293.79,127.215 277.58,111.439 256,111.439C234.42,111.439 218.21,127.215 218.21,160.667L218.21,223.333L145.333,223.333ZM108,267.059L108,462L404,462L404,267.059L108,267.059Z" style="fill:white;fill-rule:nonzero;"/>
        </g>
    </g>
</svg>
