<?xml version="1.0" standalone="no"?><!DOCTYPE svg PUBLIC "-//W3C//DTD SVG 1.1//EN" "http://www.w3.org/Graphics/SVG/1.1/DTD/svg11.dtd"><svg width="100%" height="100%" viewBox="0 0 66 74" version="1.1" xmlns="http://www.w3.org/2000/svg" xmlns:xlink="http://www.w3.org/1999/xlink" xml:space="preserve" style="fill-rule:evenodd;clip-rule:evenodd;stroke-linejoin:round;stroke-miterlimit:1.41421;"><path id="phone-4-icon" d="M59.389,71.439c-4.636,2.162 -15.454,8.478 -32.892,-26.25c-17.29,-34.432 -5.726,-39.786 -1.465,-42.05c0.102,-0.052 6.233,-3.136 6.24,-3.139l10.342,20.59l-6.168,3.097c-6.486,3.545 7.019,30.445 13.651,27.162c0.269,-0.121 6.093,-3.04 6.116,-3.052l10.426,20.522c-0.022,0.011 -5.892,2.954 -6.25,3.12ZM35.574,69.255l-3.273,-4.216c-4.529,3.516 -11.036,3.862 -12.972,0.528c-1.433,-2.472 -0.949,-5.279 -0.386,-8.532c0.614,-3.547 1.309,-7.57 -0.902,-11.334c-3.725,-6.341 -11.905,-6.056 -18.041,-2.046l2.919,4.468c2.535,-1.655 5.452,-2.368 7.616,-1.862c5.052,1.186 3.518,7.717 3.149,9.866c-0.647,3.736 -1.377,7.972 1.03,12.12c3.79,6.536 13.968,6.362 20.86,1.008Z" style="fill:#f94d00;fill-rule:nonzero;"/></svg>