<?xml version="1.0" standalone="no"?><!DOCTYPE svg PUBLIC "-//W3C//DTD SVG 1.1//EN" "http://www.w3.org/Graphics/SVG/1.1/DTD/svg11.dtd"><svg width="100%" height="100%" viewBox="0 0 50 70" version="1.1" xmlns="http://www.w3.org/2000/svg" xmlns:xlink="http://www.w3.org/1999/xlink" xml:space="preserve" style="fill-rule:evenodd;clip-rule:evenodd;stroke-linejoin:round;stroke-miterlimit:1.41421;"><circle cx="24.861" cy="24.861" r="24.861" style="fill:#949494;fill-opacity:0.498039;"/><g><path d="M24.861,69.97c-0.453,-0.001 -8.157,-21.523 -10.094,-22.385c-1.259,-0.56 -2.472,-1.226 -3.621,-1.987c-1.182,-0.783 -2.297,-1.668 -3.329,-2.64c-1.014,-0.955 -1.947,-1.994 -2.787,-3.103c-0.875,-1.155 -1.648,-2.387 -2.309,-3.676c-0.529,-1.034 -0.986,-2.104 -1.365,-3.202c-0.384,-1.114 -0.689,-2.255 -0.911,-3.413c-0.51,-2.664 -0.582,-5.413 -0.214,-8.101c0.168,-1.227 0.427,-2.441 0.777,-3.629c0.371,-1.263 0.844,-2.497 1.412,-3.685c0.637,-1.331 1.393,-2.605 2.255,-3.803c0.872,-1.21 1.852,-2.342 2.926,-3.378c1.128,-1.088 2.358,-2.07 3.67,-2.928c1.26,-0.824 2.594,-1.533 3.982,-2.115c1.554,-0.652 3.174,-1.143 4.827,-1.466c1.548,-0.301 3.124,-0.454 4.7,-0.459c1.604,-0.005 3.209,0.143 4.785,0.445c1.63,0.312 3.228,0.789 4.763,1.422c1.392,0.573 2.731,1.275 3.996,2.091c1.317,0.85 2.554,1.825 3.689,2.907c1.061,1.012 2.033,2.118 2.901,3.3c0.888,1.209 1.666,2.499 2.321,3.848c0.553,1.138 1.018,2.319 1.39,3.528c0.379,1.231 0.661,2.492 0.844,3.767c0.388,2.712 0.328,5.488 -0.179,8.18c-0.227,1.209 -0.545,2.4 -0.95,3.561c-0.374,1.073 -0.822,2.119 -1.34,3.13c-0.638,1.245 -1.381,2.436 -2.219,3.556c-0.849,1.135 -1.794,2.197 -2.822,3.172c-1.012,0.958 -2.103,1.832 -3.26,2.608c-1.144,0.768 -2.351,1.441 -3.607,2.008c-1.931,0.873 -10.178,22.447 -10.231,22.447l0,0ZM36.142,42.946c0.16,-0.099 0.317,-0.2 0.474,-0.304c0.961,-0.637 1.87,-1.352 2.716,-2.135c0.892,-0.825 1.714,-1.727 2.454,-2.692c0.716,-0.934 1.355,-1.927 1.908,-2.967c0.476,-0.896 0.888,-1.827 1.232,-2.782c0.348,-0.969 0.625,-1.964 0.828,-2.974c0.28,-1.392 0.42,-2.812 0.42,-4.232c0,-0.975 -0.066,-1.95 -0.198,-2.916c-0.14,-1.03 -0.357,-2.048 -0.647,-3.046c-0.315,-1.083 -0.717,-2.141 -1.2,-3.161c-0.552,-1.162 -1.209,-2.274 -1.961,-3.318c-0.735,-1.021 -1.561,-1.978 -2.464,-2.854c-0.95,-0.922 -1.985,-1.756 -3.088,-2.486c-1.093,-0.724 -2.253,-1.347 -3.46,-1.858c-1.308,-0.553 -2.671,-0.974 -4.063,-1.254c-1.347,-0.272 -2.72,-0.411 -4.094,-0.42c-1.378,-0.009 -2.756,0.114 -4.11,0.369c-1.397,0.263 -2.768,0.667 -4.084,1.205c-0.152,0.062 -0.304,0.126 -0.455,0.192c2.016,0.162 3.401,1.302 5.406,3.739c2.045,2.485 3.308,1.959 4.276,1.65c0.967,-0.307 -1.643,-3.8 -2.188,-4.082c-0.548,-0.284 -1.331,-1.586 0.019,-0.982c1.353,0.605 5.986,7.103 6.455,7.044c0.47,-0.058 -1.014,-1.077 -0.022,-1.119c0.992,-0.042 -0.188,0.365 2.069,1.898c2.256,1.534 4.148,4.981 0.449,5.127c-3.7,0.145 -3.365,2.626 -3.365,2.626c0,0 0.665,-2.204 3.58,-1.947c4.913,0.432 6.445,5.041 6.445,5.041c-4.469,-0.585 -6.759,0.134 -7.761,1.304l-0.029,-0.003c0,0 -4.212,0.094 -4.308,-2.64c0,0 -0.417,5.787 8.49,3.332c-0.643,0.744 -1.239,1.281 -1.792,1.655c0.091,0.968 0.441,2.551 1.681,3.917c1.941,2.142 1.498,4.437 -0.357,3.972c-0.652,-0.164 -1.132,-0.573 -1.475,-1.101c0.344,0.836 0.659,1.7 0.894,2.588c0.233,0.879 0.93,3.62 1.325,5.614ZM15.227,5.843c-0.635,0.322 -1.254,0.676 -1.853,1.06c-1.132,0.726 -2.196,1.559 -3.172,2.485c-0.913,0.865 -1.75,1.812 -2.498,2.824c-0.764,1.034 -1.434,2.138 -2,3.293c-0.485,0.992 -0.893,2.023 -1.218,3.079c-0.318,1.033 -0.557,2.091 -0.713,3.16c-0.151,1.032 -0.226,2.074 -0.226,3.116c0,1.332 0.123,2.663 0.369,3.971c0.375,1.992 1.038,3.927 1.962,5.731c1.072,2.093 2.493,4.005 4.185,5.638c0.583,0.563 1.198,1.092 1.841,1.585c0.157,-0.292 0.31,-0.59 0.46,-0.894c3.155,-2.556 3.429,-7.366 5.105,-12.346c1.833,-5.426 5.118,-9.25 5.995,-10.229c0.875,-0.981 -1.492,-1.808 -4.502,-1.03c-3.01,0.78 -3.834,-0.663 -3.834,-0.663c1.011,0.158 1.764,-0.004 2.136,-0.12c-0.359,-0.02 -1.216,-0.295 -3.265,-1.501c-3.491,-2.053 -1.896,-7.648 -0.495,-7.364c1.401,0.281 2.222,1.33 4.233,2.758c2.009,1.431 2.888,0.845 2.888,0.845c-0.779,-0.057 -1.706,-0.856 -1.693,-1.774c0.011,-0.917 -0.432,-1.446 -2.053,-2.419c-0.747,-0.45 -1.385,-0.882 -1.652,-1.205ZM33.422,33.598c-0.904,-1.984 -1.873,-3.752 -2.224,-5.151c0.587,0.264 1.288,0.292 2.103,-0.059c0.195,0.886 0.128,2.105 -0.013,3.013c-0.1,0.646 -0.069,1.447 0.134,2.197ZM25.158,19.428c0.246,-0.462 1.252,-0.992 2.022,-0.858c1.59,0.195 1.308,1.426 1.384,1.943c-0.21,-0.449 -0.775,-1.035 -1.472,-1.156c-0.697,-0.123 -1.587,-0.282 -1.934,0.071l0,0Z" style="fill:url(#_Linear1);"/></g><defs><linearGradient id="_Linear1" x1="0" y1="0" x2="1" y2="0" gradientUnits="userSpaceOnUse" gradientTransform="matrix(17,50,-50,17,11,5)"><stop offset="0%" style="stop-color:#303030;stop-opacity:1"/><stop offset="100%" style="stop-color:#595959;stop-opacity:1"/></linearGradient></defs></svg>