<?xml version="1.0" standalone="no"?><!DOCTYPE svg PUBLIC "-//W3C//DTD SVG 1.1//EN" "http://www.w3.org/Graphics/SVG/1.1/DTD/svg11.dtd"><svg width="48px" height="48px" viewBox="0 0 48 48" version="1.1" xmlns="http://www.w3.org/2000/svg" xmlns:xlink="http://www.w3.org/1999/xlink" xml:space="preserve" style="fill-rule:evenodd;clip-rule:evenodd;stroke-linejoin:round;stroke-miterlimit:1.41421;"><path id="XMLID_1_" d="M24.0083,0.202683c3.28409,0 6.36999,0.622844 9.25772,1.86853c2.88773,1.24569 5.40742,2.94435 7.55906,5.096c2.15164,2.15164 3.85031,4.66189 5.096,7.53075c1.24569,2.86886 1.86853,5.94533 1.86853,9.22941c0,3.28409 -0.622844,6.36999 -1.86853,9.25772c-1.24569,2.88773 -2.94435,5.40742 -5.096,7.55906c-2.15164,2.15164 -4.67133,3.85031 -7.55906,5.096c-2.88773,1.24569 -5.97364,1.86853 -9.25772,1.86853c-3.28409,0 -6.36056,-0.622844 -9.22941,-1.86853c-2.86886,-1.24569 -5.37911,-2.94435 -7.53075,-5.096c-2.15164,-2.15164 -3.85031,-4.67133 -5.096,-7.55906c-1.24569,-2.88773 -1.86853,-5.97364 -1.86853,-9.25772c0,-3.28409 0.622844,-6.36056 1.86853,-9.22941c1.24569,-2.86886 2.94435,-5.37911 5.096,-7.53075c2.15164,-2.15164 4.66189,-3.85031 7.53075,-5.096c2.86886,-1.24569 5.94533,-1.86853 9.22941,-1.86853ZM32.9546,10.5645l-5.03937,0c-0.981451,0 -1.88741,0.169867 -2.71786,0.5096c-0.830458,0.339733 -1.55711,0.79271 -2.17995,1.35893c-0.622844,0.566222 -1.10413,1.20794 -1.44387,1.92515c-0.339733,0.717214 -0.5096,1.43443 -0.5096,2.15164l0,3.00097l-4.47315,0l0,5.88871l4.47315,0l0,11.8907l5.94533,0l0,-11.8907l4.41653,0l0,-5.88871l-4.41653,0l0,-1.5288c0,-0.452977 0.179304,-0.811584 0.537911,-1.07582c0.358607,-0.264237 0.670029,-0.396355 0.934266,-0.396355l4.47315,0l0,-5.94533Z" style="fill:#fff;fill-rule:nonzero;"/></svg>