<?xml version="1.0" standalone="no"?><!DOCTYPE svg PUBLIC "-//W3C//DTD SVG 1.1//EN" "http://www.w3.org/Graphics/SVG/1.1/DTD/svg11.dtd"><svg width="48px" height="48px" viewBox="0 0 48 48" version="1.1" xmlns="http://www.w3.org/2000/svg" xmlns:xlink="http://www.w3.org/1999/xlink" xml:space="preserve" style="fill-rule:evenodd;clip-rule:evenodd;stroke-linejoin:round;stroke-miterlimit:1.41421;"><path id="XMLID_1_" d="M23.3855,17.6423c0,1.20794 -0.264237,2.17052 -0.79271,2.88773c-0.528474,0.717214 -1.37781,1.07582 -2.548,1.07582c-0.79271,0 -1.50049,-0.235926 -2.12333,-0.707777c-0.622844,-0.471851 -1.14188,-1.05695 -1.55711,-1.75529c-0.415229,-0.69834 -0.736088,-1.4533 -0.962577,-2.26489c-0.226489,-0.811584 -0.339733,-1.55711 -0.339733,-2.23658c0,-1.0947 0.301985,-2.09502 0.905955,-3.00097c0.641718,-0.830458 1.50992,-1.24569 2.60462,-1.24569c0.79271,0 1.50992,0.245363 2.15164,0.736088c0.641718,0.490725 1.13244,1.11357 1.47218,1.86853c0.377481,0.754962 0.670029,1.53824 0.877644,2.34982c0.207615,0.811584 0.311422,1.57598 0.311422,2.2932ZM24.9709,31.175c0.113244,0.113244 0.207615,0.320859 0.283111,0.622844c0.188741,0.377481 0.283111,0.830458 0.283111,1.35893c0,0.79271 -0.169867,1.4533 -0.5096,1.98178c-0.339733,0.528474 -0.783273,0.95314 -1.33062,1.274c-0.547348,0.320859 -1.15132,0.556785 -1.81191,0.707777c-0.660592,0.150992 -1.33062,0.226489 -2.01009,0.226489c-1.58542,0 -3.07647,-0.358607 -4.47315,-1.07582c-0.679466,-0.377481 -1.22681,-0.877644 -1.64204,-1.50049c-0.415229,-0.622844 -0.622844,-1.3495 -0.622844,-2.17995c0,-1.13244 0.330296,-2.01952 0.990888,-2.66124c0.660592,-0.641718 1.48161,-1.11357 2.46306,-1.41555c0.679466,-0.226489 1.33062,-0.386918 1.95346,-0.481288c0.622844,-0.0943703 1.25512,-0.141555 1.89684,-0.141555c0.188741,0 0.358607,0.00943703 0.5096,0.0283111c0.150992,0.0188741 0.283111,0.0283111 0.396355,0.0283111l0.5096,0.396355c0.188741,0.0754962 0.320859,0.150992 0.396355,0.226489c0.0754962,0.0754962 0.150992,0.132118 0.226489,0.169867l0.566222,0.396355c0.150992,0.113244 0.264237,0.207615 0.339733,0.283111c0.0754962,0.0754962 0.150992,0.150992 0.226489,0.226489c0.0754962,0.0377481 0.245363,0.188741 0.5096,0.452977c0.188741,0.188741 0.339733,0.358607 0.452977,0.5096c0.113244,0.150992 0.245363,0.339733 0.396355,0.566222ZM24.0649,0.146061c3.28409,0 6.36056,0.622844 9.22941,1.86853c2.86886,1.24569 5.37911,2.93492 7.53075,5.06768c2.15164,2.13277 3.85031,4.64302 5.096,7.53075c1.24569,2.88773 1.86853,5.97364 1.86853,9.25772c0,3.28409 -0.622844,6.36056 -1.86853,9.22941c-1.24569,2.86886 -2.94435,5.37911 -5.096,7.53075c-2.15164,2.15164 -4.66189,3.85031 -7.53075,5.096c-2.86886,1.24569 -5.94533,1.86853 -9.22941,1.86853c-3.28409,0 -6.36056,-0.622844 -9.22941,-1.86853c-2.86886,-1.24569 -5.37911,-2.94435 -7.53075,-5.096c-2.15164,-2.15164 -3.85031,-4.66189 -5.096,-7.53075c-1.24569,-2.86886 -1.86853,-5.94533 -1.86853,-9.22941c0,-3.28409 0.622844,-6.36999 1.86853,-9.25772c1.24569,-2.88773 2.94435,-5.39798 5.096,-7.53075c2.15164,-2.13277 4.66189,-3.822 7.53075,-5.06768c2.86886,-1.24569 5.94533,-1.86853 9.22941,-1.86853ZM25.5371,36.6674c1.69867,-1.47218 2.548,-3.15197 2.548,-5.03937c0,-1.24569 -0.283111,-2.27432 -0.849333,-3.08591c-0.566222,-0.811584 -1.18907,-1.50992 -1.86853,-2.09502c-0.679466,-0.585096 -1.30231,-1.10413 -1.86853,-1.55711c-0.566222,-0.452977 -0.849333,-0.962577 -0.849333,-1.5288c0,-0.679466 0.292548,-1.274 0.877644,-1.7836c0.585096,-0.5096 1.16075,-1.08526 1.72698,-1.72698c0.415229,-0.415229 0.764399,-0.962577 1.04751,-1.64204c0.283111,-0.679466 0.424666,-1.47218 0.424666,-2.37813c0,-0.943703 -0.245363,-1.94403 -0.736088,-3.00097c-0.452977,-0.981451 -1.11357,-1.73641 -1.98178,-2.26489l2.43475,0l2.43475,-1.41555l-7.87048,0c-1.0947,0 -2.20826,0.113244 -3.34071,0.339733c-1.66092,0.377481 -3.0576,1.22681 -4.19004,2.548c-1.13244,1.32118 -1.69867,2.81223 -1.69867,4.47315c0,1.81191 0.622844,3.28409 1.86853,4.41653c1.28344,1.17019 2.81223,1.75529 4.5864,1.75529c0.188741,0 0.386918,0 0.594533,0c0.207615,0 0.44354,-0.0188741 0.707777,-0.0566222c-0.0377481,0.0754962 -0.0849333,0.198178 -0.141555,0.368044c-0.0566222,0.169867 -0.103807,0.311422 -0.141555,0.424666c-0.0754962,0.113244 -0.113244,0.358607 -0.113244,0.736088c0,0.868207 0.377481,1.75529 1.13244,2.66124c-1.81191,0.0377481 -3.64269,0.339733 -5.49235,0.905955c-0.981451,0.301985 -1.84966,0.736088 -2.60462,1.30231c-0.754962,0.566222 -1.32118,1.22681 -1.69867,1.98178c-0.452977,0.868207 -0.679466,1.67979 -0.679466,2.43475c0,1.0192 0.264237,1.88741 0.79271,2.60462c0.528474,0.717214 1.20794,1.30231 2.0384,1.75529c0.830458,0.452977 1.71754,0.773836 2.66124,0.962577c0.943703,0.188741 1.84966,0.283111 2.71786,0.283111c3.20859,0 5.71884,-0.79271 7.53075,-2.37813ZM39.6926,13.7354l-4.5864,0l0,-4.5864l-2.32151,0l0,4.5864l-4.5864,0l0,2.26489l4.5864,0l0,4.64302l2.32151,0l0,-4.64302l4.5864,0l0,-2.26489Z" style="fill:#fff;fill-rule:nonzero;"/></svg>