<?xml version="1.0" standalone="no"?>
<!DOCTYPE svg PUBLIC "-//W3C//DTD SVG 1.1//EN" "http://www.w3.org/Graphics/SVG/1.1/DTD/svg11.dtd">
<svg width="100%" height="100%" viewBox="0 0 512 512" version="1.1" xmlns="http://www.w3.org/2000/svg" xmlns:xlink="http://www.w3.org/1999/xlink" xml:space="preserve" style="fill-rule:evenodd;clip-rule:evenodd;stroke-linejoin:round;stroke-miterlimit:1.41421;">
    <g id="rss-circle-icon" transform="matrix(1.24272,0,0,1.24272,-62.1359,-62.1359)">
        <path d="M256,50C142.229,50 50,142.229 50,256C50,369.771 142.229,462 256,462C369.771,462 462,369.771 462,256C462,142.229 369.771,50 256,50ZM189.203,356.592C172.822,356.592 159.543,343.314 159.543,326.932C159.543,310.551 172.822,297.274 189.203,297.274C205.584,297.274 218.862,310.551 218.862,326.932C218.862,343.313 205.584,356.592 189.203,356.592ZM260.083,356.592C259.516,301.403 214.731,256.621 159.543,256.053L159.543,212.114C239.087,212.682 303.453,277.048 304.022,356.593L260.083,356.593L260.083,356.592ZM334.513,356.592C334.38,309.836 316.117,265.899 283.039,232.821C250.028,199.809 206.196,181.554 159.543,181.351L159.543,137.407C280.349,137.829 378.18,235.752 378.456,356.591L334.513,356.591L334.513,356.592Z" style="fill:white;fill-rule:nonzero;"/>
    </g>
</svg>
