<?xml version="1.0" standalone="no"?><!DOCTYPE svg PUBLIC "-//W3C//DTD SVG 1.1//EN" "http://www.w3.org/Graphics/SVG/1.1/DTD/svg11.dtd"><svg width="48px" height="48px" viewBox="0 0 48 48" version="1.1" xmlns="http://www.w3.org/2000/svg" xmlns:xlink="http://www.w3.org/1999/xlink" xml:space="preserve" style="fill-rule:evenodd;clip-rule:evenodd;stroke-linejoin:round;stroke-miterlimit:1.41421;"><path id="XMLID_1_" d="M24.0083,0.202683c3.28409,0 6.36056,0.622844 9.22941,1.86853c2.86886,1.24569 5.37911,2.93492 7.53075,5.06768c2.15164,2.13277 3.85031,4.63358 5.096,7.50244c1.24569,2.86886 1.86853,5.94533 1.86853,9.22941c0,3.28409 -0.622844,6.36056 -1.86853,9.22941c-1.24569,2.86886 -2.94435,5.37911 -5.096,7.53075c-2.15164,2.15164 -4.66189,3.85031 -7.53075,5.096c-2.86886,1.24569 -5.94533,1.86853 -9.22941,1.86853c-3.28409,0 -6.36056,-0.622844 -9.22941,-1.86853c-2.86886,-1.24569 -5.36967,-2.94435 -7.50244,-5.096c-2.13277,-2.15164 -3.822,-4.66189 -5.06768,-7.53075c-1.24569,-2.86886 -1.86853,-5.94533 -1.86853,-9.22941c0,-3.28409 0.622844,-6.36056 1.86853,-9.22941c1.24569,-2.86886 2.93492,-5.36967 5.06768,-7.50244c2.13277,-2.13277 4.63358,-3.822 7.50244,-5.06768c2.86886,-1.24569 5.94533,-1.86853 9.22941,-1.86853ZM35.7857,18.7748c1.0947,-0.830458 2.05727,-1.83078 2.88773,-3.00097c-0.528474,0.226489 -1.06638,0.415229 -1.61373,0.566222c-0.547348,0.150992 -1.12301,0.264237 -1.72698,0.339733c0.60397,-0.377481 1.13244,-0.839895 1.58542,-1.38724c0.452977,-0.547348 0.773836,-1.14188 0.962577,-1.7836c-0.566222,0.301985 -1.15132,0.575659 -1.75529,0.821021c-0.60397,0.245363 -1.22681,0.424666 -1.86853,0.537911c-0.528474,-0.528474 -1.15132,-0.962577 -1.86853,-1.30231c-0.717214,-0.339733 -1.50992,-0.5096 -2.37813,-0.5096c-0.79271,0 -1.53824,0.150992 -2.23658,0.452977c-0.69834,0.301985 -1.30231,0.717214 -1.81191,1.24569c-0.5096,0.528474 -0.915392,1.14188 -1.21738,1.84022c-0.301985,0.69834 -0.452977,1.44387 -0.452977,2.23658c0,0.226489 0.00943703,0.452977 0.0283111,0.679466c0.0188741,0.226489 0.0471851,0.434103 0.0849333,0.622844c-2.37813,-0.113244 -4.5864,-0.69834 -6.62479,-1.75529c-2.0384,-1.05695 -3.77481,-2.4725 -5.20924,-4.24666c-0.528474,0.868207 -0.79271,1.83078 -0.79271,2.88773c0,0.981451 0.235926,1.89684 0.707777,2.74618c0.471851,0.849333 1.08526,1.53824 1.84022,2.06671c-0.981451,-0.0754962 -1.84966,-0.320859 -2.60462,-0.736088l0,0.0566222c0,1.43443 0.44354,2.67068 1.33062,3.70875c0.887081,1.03807 1.99121,1.68923 3.3124,1.95346c-0.264237,0.0754962 -0.519037,0.132118 -0.764399,0.169867c-0.245363,0.0377481 -0.500162,0.0566222 -0.764399,0.0566222c-0.188741,0 -0.368044,-0.00943703 -0.537911,-0.0283111c-0.169867,-0.0188741 -0.34917,-0.0471851 -0.537911,-0.0849333c0.377481,1.13244 1.04751,2.07615 2.01009,2.83111c0.962577,0.754962 2.08558,1.13244 3.36902,1.13244c-0.981451,0.79271 -2.08558,1.40612 -3.3124,1.84022c-1.22681,0.434103 -2.50081,0.651155 -3.822,0.651155c-0.264237,0 -0.5096,-0.00943703 -0.736088,-0.0283111c-0.226489,-0.0188741 -0.452977,-0.0471851 -0.679466,-0.0849333c1.28344,0.830458 2.67068,1.47218 4.16173,1.92515c1.49105,0.452977 3.04816,0.679466 4.67133,0.679466c2.64237,0 4.98275,-0.500162 7.02115,-1.50049c2.0384,-1.00032 3.7465,-2.28376 5.12431,-3.85031c1.37781,-1.56655 2.42532,-3.32183 3.14253,-5.26586c0.717214,-1.94403 1.07582,-3.85974 1.07582,-5.74715l0,-0.736088Z" style="fill:#fff;fill-rule:nonzero;"/></svg>