<?xml version="1.0" standalone="no"?><!DOCTYPE svg PUBLIC "-//W3C//DTD SVG 1.1//EN" "http://www.w3.org/Graphics/SVG/1.1/DTD/svg11.dtd"><svg width="48px" height="48px" viewBox="0 0 48 48" version="1.1" xmlns="http://www.w3.org/2000/svg" xmlns:xlink="http://www.w3.org/1999/xlink" xml:space="preserve" style="fill-rule:evenodd;clip-rule:evenodd;stroke-linejoin:round;stroke-miterlimit:1.41421;"><path id="XMLID_1_" d="M34.54,29.1932c0.301985,0 0.5096,0.0943703 0.622844,0.283111c0.150992,0.150992 0.226489,0.415229 0.226489,0.79271l0,0.962577l-1.69867,0l0,-0.962577c0,-0.339733 0.0566222,-0.60397 0.169867,-0.79271c0.188741,-0.188741 0.415229,-0.283111 0.679466,-0.283111ZM27.9152,29.1932c0.264237,0 0.452977,0.0754962 0.566222,0.226489c0.150992,0.150992 0.226489,0.377481 0.226489,0.679466l0,4.75626c0,0.301985 -0.0566222,0.5096 -0.169867,0.622844c-0.113244,0.150992 -0.283111,0.226489 -0.5096,0.226489c-0.150992,0 -0.301985,-0.0377481 -0.452977,-0.113244c-0.188741,-0.0754962 -0.339733,-0.188741 -0.452977,-0.339733l0,-5.71884c0.150992,-0.150992 0.283111,-0.245363 0.396355,-0.283111c0.0754962,-0.0377481 0.207615,-0.0566222 0.396355,-0.0566222ZM24.0649,0.259306c3.28409,0 6.36056,0.622844 9.22941,1.86853c2.86886,1.24569 5.36967,2.93492 7.50244,5.06768c2.13277,2.13277 3.822,4.63358 5.06768,7.50244c1.24569,2.86886 1.86853,5.94533 1.86853,9.22941c0,3.28409 -0.622844,6.36056 -1.86853,9.22941c-1.24569,2.86886 -2.93492,5.37911 -5.06768,7.53075c-2.13277,2.15164 -4.63358,3.85031 -7.50244,5.096c-2.86886,1.24569 -5.94533,1.86853 -9.22941,1.86853c-3.28409,0 -6.36056,-0.622844 -9.22941,-1.86853c-2.86886,-1.24569 -5.37911,-2.94435 -7.53075,-5.096c-2.15164,-2.15164 -3.85031,-4.66189 -5.096,-7.53075c-1.24569,-2.86886 -1.86853,-5.94533 -1.86853,-9.22941c0,-3.28409 0.622844,-6.36056 1.86853,-9.22941c1.24569,-2.86886 2.94435,-5.36967 5.096,-7.50244c2.15164,-2.13277 4.66189,-3.822 7.53075,-5.06768c2.86886,-1.24569 5.94533,-1.86853 9.22941,-1.86853ZM17.3835,24.5502l-6.68142,0l0,1.81191l2.26489,0l0,10.645l2.15164,0l0,-10.645l2.26489,0l0,-1.81191ZM17.4401,18.6615l2.83111,-8.04035l-2.49138,0l-1.47218,5.49235l-0.169867,0l-1.58542,-5.49235l-2.43475,0l2.88773,8.26684l0,5.43573l2.43475,0l0,-5.66222ZM23.7252,27.8343l-1.92515,0l0,6.96453c-0.0754962,0.113244 -0.169867,0.207615 -0.283111,0.283111c-0.113244,0.0754962 -0.226489,0.150992 -0.339733,0.226489c-0.226489,0.113244 -0.396355,0.169867 -0.5096,0.169867c-0.188741,0 -0.320859,-0.0377481 -0.396355,-0.113244c-0.0754962,-0.0754962 -0.113244,-0.245363 -0.113244,-0.5096l0,-7.02115l-1.92515,0l0,7.70061c0,0.528474 0.113244,0.924829 0.339733,1.18907c0.226489,0.301985 0.547348,0.452977 0.962577,0.452977c0.339733,0 0.717214,-0.113244 1.13244,-0.339733c0.339733,-0.150992 0.717214,-0.434103 1.13244,-0.849333l0,1.0192l1.92515,0l0,-9.17279ZM23.5553,24.5502c1.0192,0 1.79304,-0.245363 2.32151,-0.736088c0.566222,-0.452977 0.849333,-1.13244 0.849333,-2.0384l0,-5.20924c0,-0.717214 -0.283111,-1.34006 -0.849333,-1.86853c-0.528474,-0.490725 -1.26456,-0.736088 -2.20826,-0.736088c-0.981451,0 -1.75529,0.226489 -2.32151,0.679466c-0.60397,0.452977 -0.905955,1.07582 -0.905955,1.86853l0,5.26586c0,0.868207 0.283111,1.54767 0.849333,2.0384c0.528474,0.490725 1.28344,0.736088 2.26489,0.736088ZM30.6897,30.0426c0,-0.754962 -0.169867,-1.34006 -0.5096,-1.75529c-0.264237,-0.377481 -0.717214,-0.566222 -1.35893,-0.566222c-0.339733,0 -0.641718,0.0754962 -0.905955,0.226489c-0.301985,0.113244 -0.566222,0.320859 -0.79271,0.622844l0,-4.02017l-1.98178,0l0,12.4569l1.98178,0l0,-0.679466c0.113244,0.150992 0.235926,0.273674 0.368044,0.368044c0.132118,0.0943703 0.273674,0.179304 0.424666,0.2548c0.264237,0.113244 0.60397,0.169867 1.0192,0.169867c0.566222,0 1.00032,-0.169867 1.30231,-0.5096c0.301985,-0.377481 0.452977,-0.868207 0.452977,-1.47218l0,-5.096ZM30.0102,24.437c0.452977,0 0.868207,-0.0943703 1.24569,-0.283111c0.377481,-0.188741 0.79271,-0.5096 1.24569,-0.962577l0,1.13244l2.15164,0l0,-10.1354l-2.15164,0l0,7.70061c-0.150992,0.188741 -0.377481,0.377481 -0.679466,0.566222c-0.226489,0.113244 -0.415229,0.169867 -0.566222,0.169867c-0.264237,0 -0.415229,-0.0566222 -0.452977,-0.169867c-0.113244,-0.113244 -0.169867,-0.283111 -0.169867,-0.5096l0,-7.75724l-2.15164,0l0,8.49333c0,0.60397 0.132118,1.03807 0.396355,1.30231c0.188741,0.301985 0.566222,0.452977 1.13244,0.452977ZM37.3711,30.3257c0,-0.905955 -0.245363,-1.58542 -0.736088,-2.0384c-0.452977,-0.452977 -1.13244,-0.679466 -2.0384,-0.679466c-0.868207,0 -1.56655,0.245363 -2.09502,0.736088c-0.528474,0.528474 -0.79271,1.18907 -0.79271,1.98178l0,4.0768c0,0.905955 0.245363,1.60429 0.736088,2.09502c0.528474,0.528474 1.20794,0.79271 2.0384,0.79271c0.943703,0 1.66092,-0.245363 2.15164,-0.736088c0.490725,-0.452977 0.736088,-1.17019 0.736088,-2.15164l0,-0.452977l-1.98178,0l0,0.396355c0,0.566222 -0.0566222,0.924829 -0.169867,1.07582c-0.150992,0.150992 -0.377481,0.226489 -0.679466,0.226489c-0.377481,0 -0.60397,-0.0943703 -0.679466,-0.283111c-0.113244,-0.150992 -0.169867,-0.490725 -0.169867,-1.0192l0,-1.69867l3.68044,0l0,-2.32151ZM23.5553,15.7172c0.264237,0 0.5096,0.0566222 0.736088,0.169867c0.150992,0.150992 0.226489,0.339733 0.226489,0.566222l0,5.49235c0,0.301985 -0.0754962,0.5096 -0.226489,0.622844c-0.150992,0.150992 -0.396355,0.226489 -0.736088,0.226489c-0.301985,0 -0.5096,-0.0754962 -0.622844,-0.226489c-0.188741,-0.113244 -0.283111,-0.320859 -0.283111,-0.622844l0,-5.49235c0,-0.188741 0.0943703,-0.377481 0.283111,-0.566222c0.150992,-0.113244 0.358607,-0.169867 0.622844,-0.169867Z" style="fill:#fff;fill-rule:nonzero;"/></svg>